<?xml version="1.0" standalone="no"?>
<svg xmlns:xlink="http://www.w3.org/1999/xlink" id="wave" style="transform:rotate(0deg); transition: 0.3s" viewBox="0 0 1440 280" version="1.1" xmlns="http://www.w3.org/2000/svg"><defs><linearGradient id="sw-gradient-0" x1="0" x2="0" y1="1" y2="0"><stop stop-color="rgba(0, 162.885, 255, 1)" offset="0%"/><stop stop-color="rgba(0, 162.885, 255, 1)" offset="100%"/></linearGradient></defs><path style="transform:translate(0, 0px); opacity:1" fill="url(#sw-gradient-0)" d="M0,224L80,219.3C160,215,320,205,480,205.3C640,205,800,215,960,205.3C1120,196,1280,168,1440,130.7C1600,93,1760,47,1920,37.3C2080,28,2240,56,2400,88.7C2560,121,2720,159,2880,182C3040,205,3200,215,3360,200.7C3520,187,3680,149,3840,116.7C4000,84,4160,56,4320,46.7C4480,37,4640,47,4800,84C4960,121,5120,187,5280,182C5440,177,5600,103,5760,88.7C5920,75,6080,121,6240,154C6400,187,6560,205,6720,182C6880,159,7040,93,7200,74.7C7360,56,7520,84,7680,93.3C7840,103,8000,93,8160,98C8320,103,8480,121,8640,116.7C8800,112,8960,84,9120,65.3C9280,47,9440,37,9600,42C9760,47,9920,65,10080,88.7C10240,112,10400,140,10560,135.3C10720,131,10880,93,11040,84C11200,75,11360,93,11440,102.7L11520,112L11520,280L11440,280C11360,280,11200,280,11040,280C10880,280,10720,280,10560,280C10400,280,10240,280,10080,280C9920,280,9760,280,9600,280C9440,280,9280,280,9120,280C8960,280,8800,280,8640,280C8480,280,8320,280,8160,280C8000,280,7840,280,7680,280C7520,280,7360,280,7200,280C7040,280,6880,280,6720,280C6560,280,6400,280,6240,280C6080,280,5920,280,5760,280C5600,280,5440,280,5280,280C5120,280,4960,280,4800,280C4640,280,4480,280,4320,280C4160,280,4000,280,3840,280C3680,280,3520,280,3360,280C3200,280,3040,280,2880,280C2720,280,2560,280,2400,280C2240,280,2080,280,1920,280C1760,280,1600,280,1440,280C1280,280,1120,280,960,280C800,280,640,280,480,280C320,280,160,280,80,280L0,280Z"/><defs><linearGradient id="sw-gradient-1" x1="0" x2="0" y1="1" y2="0"><stop stop-color="rgba(0, 145, 227, 1)" offset="0%"/><stop stop-color="rgba(0, 145, 227, 1)" offset="100%"/></linearGradient></defs><path style="transform:translate(0, 50px); opacity:0.9" fill="url(#sw-gradient-1)" d="M0,196L80,172.7C160,149,320,103,480,79.3C640,56,800,56,960,70C1120,84,1280,112,1440,126C1600,140,1760,140,1920,154C2080,168,2240,196,2400,182C2560,168,2720,112,2880,102.7C3040,93,3200,131,3360,140C3520,149,3680,131,3840,140C4000,149,4160,187,4320,182C4480,177,4640,131,4800,135.3C4960,140,5120,196,5280,205.3C5440,215,5600,177,5760,140C5920,103,6080,65,6240,65.3C6400,65,6560,103,6720,126C6880,149,7040,159,7200,158.7C7360,159,7520,149,7680,140C7840,131,8000,121,8160,130.7C8320,140,8480,168,8640,191.3C8800,215,8960,233,9120,210C9280,187,9440,121,9600,102.7C9760,84,9920,112,10080,116.7C10240,121,10400,103,10560,107.3C10720,112,10880,140,11040,168C11200,196,11360,224,11440,238L11520,252L11520,280L11440,280C11360,280,11200,280,11040,280C10880,280,10720,280,10560,280C10400,280,10240,280,10080,280C9920,280,9760,280,9600,280C9440,280,9280,280,9120,280C8960,280,8800,280,8640,280C8480,280,8320,280,8160,280C8000,280,7840,280,7680,280C7520,280,7360,280,7200,280C7040,280,6880,280,6720,280C6560,280,6400,280,6240,280C6080,280,5920,280,5760,280C5600,280,5440,280,5280,280C5120,280,4960,280,4800,280C4640,280,4480,280,4320,280C4160,280,4000,280,3840,280C3680,280,3520,280,3360,280C3200,280,3040,280,2880,280C2720,280,2560,280,2400,280C2240,280,2080,280,1920,280C1760,280,1600,280,1440,280C1280,280,1120,280,960,280C800,280,640,280,480,280C320,280,160,280,80,280L0,280Z"/></svg>