<?xml version="1.0" standalone="no"?>
<svg xmlns:xlink="http://www.w3.org/1999/xlink" id="wave" style="transform:rotate(0deg); transition: 0.3s" viewBox="0 0 1440 100" version="1.1" xmlns="http://www.w3.org/2000/svg"><defs><linearGradient id="sw-gradient-0" x1="0" x2="0" y1="1" y2="0"><stop stop-color="rgba(0, 145, 227, 1)" offset="0%"/><stop stop-color="rgba(0, 145, 227, 1)" offset="100%"/></linearGradient></defs><path style="transform:translate(0, 0px); opacity:1" fill="url(#sw-gradient-0)" d="M0,70L80,61.7C160,53,320,37,480,36.7C640,37,800,53,960,51.7C1120,50,1280,30,1440,33.3C1600,37,1760,63,1920,63.3C2080,63,2240,37,2400,36.7C2560,37,2720,63,2880,76.7C3040,90,3200,90,3360,75C3520,60,3680,30,3840,23.3C4000,17,4160,33,4320,36.7C4480,40,4640,30,4800,36.7C4960,43,5120,67,5280,76.7C5440,87,5600,83,5760,78.3C5920,73,6080,67,6240,65C6400,63,6560,67,6720,61.7C6880,57,7040,43,7200,33.3C7360,23,7520,17,7680,15C7840,13,8000,17,8160,15C8320,13,8480,7,8640,13.3C8800,20,8960,40,9120,53.3C9280,67,9440,73,9600,75C9760,77,9920,73,10080,60C10240,47,10400,23,10560,15C10720,7,10880,13,11040,13.3C11200,13,11360,7,11440,3.3L11520,0L11520,100L11440,100C11360,100,11200,100,11040,100C10880,100,10720,100,10560,100C10400,100,10240,100,10080,100C9920,100,9760,100,9600,100C9440,100,9280,100,9120,100C8960,100,8800,100,8640,100C8480,100,8320,100,8160,100C8000,100,7840,100,7680,100C7520,100,7360,100,7200,100C7040,100,6880,100,6720,100C6560,100,6400,100,6240,100C6080,100,5920,100,5760,100C5600,100,5440,100,5280,100C5120,100,4960,100,4800,100C4640,100,4480,100,4320,100C4160,100,4000,100,3840,100C3680,100,3520,100,3360,100C3200,100,3040,100,2880,100C2720,100,2560,100,2400,100C2240,100,2080,100,1920,100C1760,100,1600,100,1440,100C1280,100,1120,100,960,100C800,100,640,100,480,100C320,100,160,100,80,100L0,100Z"/><defs><linearGradient id="sw-gradient-1" x1="0" x2="0" y1="1" y2="0"><stop stop-color="rgba(0, 120.946, 189.343, 1)" offset="0%"/><stop stop-color="rgba(0, 134.035, 209.834, 1)" offset="100%"/></linearGradient></defs><path style="transform:translate(0, 50px); opacity:0.9" fill="url(#sw-gradient-1)" d="M0,30L80,36.7C160,43,320,57,480,51.7C640,47,800,23,960,26.7C1120,30,1280,60,1440,73.3C1600,87,1760,83,1920,71.7C2080,60,2240,40,2400,28.3C2560,17,2720,13,2880,10C3040,7,3200,3,3360,6.7C3520,10,3680,20,3840,21.7C4000,23,4160,17,4320,23.3C4480,30,4640,50,4800,60C4960,70,5120,70,5280,71.7C5440,73,5600,77,5760,75C5920,73,6080,67,6240,63.3C6400,60,6560,60,6720,60C6880,60,7040,60,7200,58.3C7360,57,7520,53,7680,55C7840,57,8000,63,8160,60C8320,57,8480,43,8640,41.7C8800,40,8960,50,9120,50C9280,50,9440,40,9600,40C9760,40,9920,50,10080,51.7C10240,53,10400,47,10560,48.3C10720,50,10880,60,11040,53.3C11200,47,11360,23,11440,11.7L11520,0L11520,100L11440,100C11360,100,11200,100,11040,100C10880,100,10720,100,10560,100C10400,100,10240,100,10080,100C9920,100,9760,100,9600,100C9440,100,9280,100,9120,100C8960,100,8800,100,8640,100C8480,100,8320,100,8160,100C8000,100,7840,100,7680,100C7520,100,7360,100,7200,100C7040,100,6880,100,6720,100C6560,100,6400,100,6240,100C6080,100,5920,100,5760,100C5600,100,5440,100,5280,100C5120,100,4960,100,4800,100C4640,100,4480,100,4320,100C4160,100,4000,100,3840,100C3680,100,3520,100,3360,100C3200,100,3040,100,2880,100C2720,100,2560,100,2400,100C2240,100,2080,100,1920,100C1760,100,1600,100,1440,100C1280,100,1120,100,960,100C800,100,640,100,480,100C320,100,160,100,80,100L0,100Z"/></svg>